<svg width="73" height="22" viewBox="0 0 73 22" fill="none" xmlns="http://www.w3.org/2000/svg">
<path d="M20.417 2.09444C20.417 1.46294 19.8475 0.984149 19.2254 1.0927L0.842083 4.30038C0.355271 4.38532 0 4.80795 0 5.30212V5.6259C0 6.11448 0.347477 6.534 0.827514 6.62499L2.91641 7.02091L0.827513 7.41682C0.347476 7.50781 0 7.92733 0 8.41591V15.0147C0 15.4743 0.308276 15.8768 0.752009 15.9965L19.1353 20.956C19.7815 21.1304 20.417 20.6436 20.417 19.9742V9.54642C20.417 9.0611 20.0741 8.64342 19.598 8.54898L11.6697 6.9761L19.598 5.40321C20.0741 5.30877 20.417 4.89109 20.417 4.40577V2.09444Z" fill="black"/>
<path d="M28.3702 14.2877V19.9103C28.3702 20.9326 27.7374 21.6141 26.8368 21.6141H23.8186C22.918 21.6141 22.2852 20.9326 22.2852 19.9103V1.70382C22.2852 0.681527 22.918 0 23.8186 0H26.8368C27.7374 0 28.3702 0.681527 28.3702 1.70382V6.5962C28.3702 7.61849 29.8793 7.56981 29.8793 8.5921V12.2918C29.8793 13.3141 28.3702 13.2654 28.3702 14.2877Z" fill="black"/>
<path d="M73.0006 12.5109V13.2411C73.0006 14.2634 72.3921 14.9449 71.4672 14.9449H54.1369C53.212 14.9449 52.6035 14.2634 52.6035 13.2411V12.5109C52.6035 11.4886 53.212 10.8071 54.1369 10.8071H58.5182V10.1986H54.1369C53.212 10.1986 52.6035 9.51703 52.6035 8.49474V5.52523C52.6035 4.50294 53.212 3.7484 54.1126 3.67538C57.7393 3.33461 61.0252 3.38329 64.7493 3.82142V3.21291C60.9766 2.77479 57.6906 2.72611 54.0152 3.06687C53.1633 3.13989 52.6035 2.58007 52.6035 1.6308C52.6035 0.632847 53.1633 0 54.0152 0H71.4672C72.3921 0 73.0006 0.681527 73.0006 1.70382V4.67333C73.0006 5.69562 72.3921 6.45016 71.4915 6.52318C67.8648 6.86395 64.5789 6.81527 60.8549 6.37714V6.98565C64.6276 7.42377 67.9135 7.47245 71.5889 7.13169C72.4408 7.05867 73.0006 7.61849 73.0006 8.56776C73.0006 9.56571 72.4408 10.1986 71.5889 10.1986H67.086V10.8071H71.4672C72.3921 10.8071 73.0006 11.4886 73.0006 12.5109ZM73.0006 17.2329V19.9103C73.0006 20.9326 72.3921 21.6141 71.4672 21.6141H66.2827C65.3578 21.6141 64.7493 20.9326 64.7493 19.9103V19.6669H54.1369C53.212 19.6669 52.6035 18.9854 52.6035 17.9631V17.2329C52.6035 16.2106 53.212 15.5291 54.1369 15.5291H71.4672C72.3921 15.5291 73.0006 16.2106 73.0006 17.2329Z" fill="black"/>
<path d="M51.0852 1.70382V19.9103C51.0852 20.9326 50.4767 21.6141 49.5518 21.6141H45.3653C44.4404 21.6141 43.8319 20.9326 43.8319 19.9103V1.70382C43.8319 0.681527 44.4404 0 45.3653 0H49.5518C50.4767 0 51.0852 0.681527 51.0852 1.70382ZM43.2233 16.3323V19.9103C43.2233 20.9569 42.5905 21.6385 41.6899 21.4924C39.4993 21.176 37.5764 20.1294 36.7245 18.6446C35.9213 20.1294 33.9741 21.176 31.7591 21.4924C30.8828 21.6385 30.25 20.9569 30.25 19.9103V16.3323C30.25 15.5291 30.6638 14.8719 31.6861 14.0443C32.4893 13.4115 32.8787 12.2188 32.8787 10.2229V1.70382C32.8787 0.681527 33.5116 0 34.4122 0H39.0368C39.9618 0 40.5703 0.681527 40.5703 1.70382V10.2229C40.5703 12.2188 40.984 13.4115 41.7873 14.0443C42.8096 14.8719 43.2233 15.5291 43.2233 16.3323Z" fill="black"/>
</svg>
